<svg viewBox="0 0 5669.3 1337" xml:space="preserve" xmlns="http://www.w3.org/2000/svg"><defs><radialGradient id="a" cx="250.34" cy="1008" r="26.421" gradientTransform="matrix(15.256 -.17599 .20955 18.165 -1220.3 -17395)" gradientUnits="userSpaceOnUse"><stop stop-color="#7ecff3" stop-opacity=".98" offset="0"/><stop stop-color="#87d0ef" stop-opacity=".988" offset=".669"/><stop stop-color="#0c84ce" offset="1"/></radialGradient></defs><path d="M2.823 436.22h290.4l64.912 358.718q10.25 64.912 17.082 129.823 6.833 63.204 17.082 129.824h6.833q10.25-66.62 20.499-131.531 11.957-66.62 27.33-128.116l78.577-358.717h249.396l81.993 358.717q15.373 64.912 25.622 129.823 11.957 63.204 25.622 129.824h6.833q10.25-66.62 17.082-129.824 6.833-64.911 17.082-129.823l64.912-358.717h269.898l-194.735 854.104H747.605l-61.496-297.229-20.499-119.574q-10.25-59.786-20.499-131.53h-6.832l-18.791 131.53q-8.541 59.788-18.79 119.574l-58.079 297.229h-334.81zm1421.231-333.383h293.805v276.726l-13.665 146.905q44.413-39.288 105.909-73.451 63.203-35.874 150.322-35.874 140.07 0 203.275 95.66 63.203 93.95 63.203 252.819v526.122h-293.805V803.203q0-81.993-20.499-109.325-20.498-27.33-64.911-27.33-40.998 0-68.328 17.08-27.33 17.084-61.496 47.832v560.28H1424.06zM3374.793 436.22h239.145l20.499 102.492h6.833q51.246-49.537 116.156-85.408 66.62-37.582 153.738-37.582 140.073 0 203.275 95.66 63.204 93.95 63.204 252.819v526.122h-293.805v-488.54q0-81.994-20.5-109.326-20.498-27.33-64.91-27.33-40.998 0-68.328 17.081-27.33 17.083-61.496 47.83v560.281h-293.806zm994.09 0h293.805v854.105h-293.805zm673.185 410.045L4799.5 436.292h314.308l61.496 119.574q17.082 35.872 34.164 73.453 17.082 37.58 34.163 73.452h6.833q11.958-35.872 25.622-73.452 13.666-37.581 25.623-73.453l40.997-119.574h304.057l-242.568 444.131 256.224 409.973H5346.11l-68.327-119.574q-18.791-35.872-37.58-73.452-18.79-37.581-37.58-73.453h-6.832q-13.666 35.872-29.04 73.453-15.374 35.872-29.04 73.452l-47.83 119.574h-304.056z" aria-label="whonix"/><path d="M2796.4 96.051c-165.42 0-303.98 131.92-303.98 297.37v145.62a453.2 453.2 0 0 0-137.12 324.74 453.2 453.2 0 0 0 453.22 453.19 453.2 453.2 0 0 0 453.19-453.19 453.2 453.2 0 0 0-143.43-330.03v-140.33c0-165.45-131.46-297.37-296.88-297.37zm-1.95 106.97h8.357c101.85 0 181.76 83.393 181.76 185.24v57.941a453.2 453.2 0 0 0-176.05-35.62 453.2 453.2 0 0 0-198.41 46.102v-68.422c0-101.85 82.488-185.24 184.34-185.24z" fill="url(#a)" stroke="#000" stroke-width="35.656"/><path d="M2597.1 799.69c2.581-135.49 45.164-232.27 78.714-232.27 41.292 0 100.65 56.777 141.94 56.777 25.807 0 83.875-41.292 129.04-41.292 23.227 0 60.533 73.569 61.823 197.45-162.83 9.33-271.02 72.758-411.52 19.338zm160.2 139.68c25.021-15.327 65.881-14.312 88.033-1.747l.362 18.245c-23.297-12.768-64.121-11.957-88.033 1.747z" fill-rule="evenodd"/><path d="M2880.2 1105.5s-7.5 28.165-70.314 30.379c-69.704 3.27-78.377-23.487-78.377-23.487" fill="none" stroke="#000" stroke-linecap="round" stroke-linejoin="round" stroke-width="35.656"/><path d="M2474.2 817.5c1.234-49.382 205.4 37.541 268.45 29.336 98.276-7.104 368.56-91.062 382.14-28.102 9.876 55.556-75.909 11.92-235.52 36.207 0 0-415.08 45.274-415.08-37.441zm113.2 125.17c20.394-29.641 112.88-38.772 180-9.367 0 0 10.075 29.962-2.614 49.122-10.437 31.616-106.57 63.97-162.32 27.744-21.165-17.614-24.225-41.33-15.066-67.499zm426.7-20.62c-23.92-26.876-116.82-24.444-179.77 13.077 0 0-6.273 30.982 8.698 48.414 14.286 30.076 113.7 50.229 164.51 7.358 18.812-20.11 18.9-44.023 6.561-68.85z" fill-rule="evenodd"/><circle cx="4515.2" cy="178.87" r="156.38" fill="#d8e620" stroke="#000" stroke-linecap="round" stroke-linejoin="round" stroke-width="30.739" style="paint-order:fill markers stroke"/></svg>