<?xml version="1.0" encoding="UTF-8" standalone="no"?>
<svg
   xmlns:dc="http://purl.org/dc/elements/1.1/"
   xmlns:cc="http://creativecommons.org/ns#"
   xmlns:rdf="http://www.w3.org/1999/02/22-rdf-syntax-ns#"
   xmlns:svg="http://www.w3.org/2000/svg"
   xmlns="http://www.w3.org/2000/svg"
   xmlns:sodipodi="http://sodipodi.sourceforge.net/DTD/sodipodi-0.dtd"
   xmlns:inkscape="http://www.inkscape.org/namespaces/inkscape"
   id="Layer_1"
   data-name="Layer 1"
   viewBox="0 0 422.49 418.18"
   version="1.1"
   sodipodi:docname="dasharo-sygnet-white.svg"
   inkscape:version="0.92.1 r15371">
  <metadata
     id="metadata3754">
    <rdf:RDF>
      <cc:Work
         rdf:about="">
        <dc:format>image/svg+xml</dc:format>
        <dc:type
           rdf:resource="http://purl.org/dc/dcmitype/StillImage" />
        <dc:title></dc:title>
      </cc:Work>
    </rdf:RDF>
  </metadata>
  <sodipodi:namedview
     pagecolor="#ffffff"
     bordercolor="#666666"
     borderopacity="1"
     objecttolerance="10"
     gridtolerance="10"
     guidetolerance="10"
     inkscape:pageopacity="0"
     inkscape:pageshadow="2"
     inkscape:window-width="1920"
     inkscape:window-height="1145"
     id="namedview3752"
     showgrid="false"
     inkscape:zoom="2.2956622"
     inkscape:cx="211.245"
     inkscape:cy="209.09"
     inkscape:window-x="0"
     inkscape:window-y="55"
     inkscape:window-maximized="0"
     inkscape:current-layer="Layer_1" />
  <defs
     id="defs3747">
    <style
       id="style3745">.cls-1{fill:#1d1d1b;}</style>
  </defs>
  <path
     class="cls-1"
     d="M309.07,98.47a93.18,93.18,0,0,0-10-2.25l-1,7.88c-.12,1.06-13.15,105-111.12,196.41a76.7,76.7,0,0,1-10.59-11.88c30.54-26.3,52.95-56.42,66.62-77.56,1.88-2.91,5.47-8.8,8.88-15.47a322.54,322.54,0,0,0,16.78-32.79l1.19-2.82H250.53l-16.62,12.38a4.94,4.94,0,0,1-6.6-.62l-10.65-11.63-.08-12.22,13.61-.13-.13-14.07-13.61.13-.13-13.61-14.06.13.12,13.61-13.61.12.13,14.07,13.61-.12.09,12.62-10.24,11.11a5,5,0,0,1-6.59.62L169.14,160H149.83l1.19,2.82c.54,1.29,10.23,24,29.11,52.83a10.18,10.18,0,0,1-.89,12.36c-8.43,9.44-21.23,22.36-28.23,29.09-11.17-14.32-40.72-57.86-60.71-139.29,82-30.35,186.1-13.13,187.16-13l2.21-12.93C167.37,71.66,73.8,109.18,73.8,109.18l1.37,5.88c.18.73.36,1.42.53,2.15,6.06,24,27.43,97.74,74.43,160l5.08-4.73c1.16-1.09,27-25.18,37.3-39l0,0a20,20,0,0,0,1.1-23.44c-5.36-8.2-18.1-27.05-18.38-27.67l13.16,9.61a5,5,0,0,0,6.65-.68l14.76-16.62,14.77,16.62a5,5,0,0,0,6.65.68l14.07-10.33c-8.6,15.44-24.16,37.83-40.92,58.26l0,0a320.29,320.29,0,0,1-42.18,42.23l-5.06,4.16a281.68,281.68,0,0,0,30.71,32.41l3.74-3.37c91.8-83,114.43-175.35,119.24-202.11a129,129,0,0,1,14,3.77C294,254,200,327.22,199,328l11.65,8.67s83-66.82,120-186.48c3.49-11.49,6.63-23.48,9.27-36.05l1.13-5.38C330.33,104.72,319.65,101.32,309.07,98.47Z"
     id="path3749" />
  <path
     style="fill:#ffffff;stroke-width:0.43560416"
     d="m 205.05022,332.25707 c -3.03937,-2.21613 -5.52147,-4.12735 -5.51576,-4.24714 0.006,-0.11979 1.79597,-1.68796 3.97838,-3.48483 5.33018,-4.38856 24.66893,-23.6696 30.80199,-30.71009 43.18915,-49.57927 72.73713,-105.45475 88.30428,-166.98417 1.99718,-7.89386 2.35032,-9.80008 1.8705,-10.09663 -0.77951,-0.48176 -9.72284,-2.92722 -12.03447,-3.2907 l -1.81024,-0.28464 -0.51042,2.55383 c -3.47075,17.36568 -9.50323,37.24989 -16.71455,55.09436 -17.23176,42.64007 -41.77268,81.23912 -74.32997,116.90949 -5.87204,6.4335 -21.72634,22.18114 -27.79364,27.60664 l -3.59287,3.21281 -10.15411,-10.18248 c -9.34136,-9.36744 -19.53957,-20.65893 -19.75589,-21.87377 -0.0495,-0.27809 1.22463,-1.55169 2.83143,-2.83023 10.92645,-8.69419 27.24691,-24.40894 37.17484,-35.79513 12.48432,-14.31807 24.51155,-30.10495 35.64336,-46.78527 5.62669,-8.43125 12.005,-18.90582 11.69882,-19.212 -0.12167,-0.12168 -2.61784,1.55195 -5.54704,3.71917 -8.58913,6.35481 -9.56593,6.96075 -11.22102,6.96075 -0.8274,0 -1.88256,-0.20241 -2.3448,-0.44978 -0.46223,-0.24738 -4.19491,-4.21683 -8.29484,-8.82099 -4.09992,-4.60416 -7.61345,-8.43126 -7.80782,-8.50467 -0.19438,-0.0734 -3.52723,3.45498 -7.40634,7.84088 -8.60333,9.7273 -8.83074,9.92961 -11.16457,9.93239 -1.61941,0.002 -2.51477,-0.51012 -8.42578,-4.81865 -3.63761,-2.65145 -6.90062,-4.93087 -7.25113,-5.06537 -0.70955,-0.27229 -0.49617,0.0662 10.48818,16.63805 4.28767,6.46872 8.24365,12.74142 8.79108,13.93934 2.22493,4.86879 2.13623,11.15374 -0.22749,16.11735 -1.63002,3.42292 -6.23997,9.09773 -15.19134,18.70041 -6.87772,7.37815 -28.60892,28.56264 -29.29976,28.56264 -0.62656,0 -10.60509,-14.23977 -16.66329,-23.7792 -21.05429,-33.15272 -39.515792,-74.33307 -52.416649,-116.92094 -3.521339,-11.62453 -7.250693,-26.19869 -6.807804,-26.60463 0.541722,-0.49652 9.813882,-3.62704 17.755771,-5.99479 30.793252,-9.180565 64.533022,-14.86754 98.882142,-16.666993 10.871,-0.5695 40.17231,-0.295941 49.44107,0.461586 9.55972,0.781307 24.13142,2.491231 31.83238,3.735391 l 7.182,1.160315 -1.05015,6.163908 c -0.57758,3.390153 -1.09005,6.212733 -1.13882,6.272413 -0.0488,0.0597 -2.13073,-0.17742 -4.6266,-0.52689 -30.7871,-4.310784 -73.63364,-5.37315 -104.7269,-2.59667 -20.46021,1.82699 -40.49365,5.26378 -57.06985,9.79048 -6.87095,1.87634 -19.18878,5.81477 -20.179022,6.45192 -0.470589,0.30278 -0.234543,1.70479 1.228258,7.29527 13.246344,50.62443 32.550344,95.50789 54.064134,125.70372 5.54873,7.78797 3.93018,7.90892 12.85653,-0.96073 10.99557,-10.92573 21.01256,-21.68511 22.08397,-23.72068 1.21276,-2.30412 1.27446,-6.75411 0.12398,-8.94125 -0.44109,-0.83854 -2.41788,-4.0729 -4.39288,-7.18747 -8.26638,-13.03611 -17.44357,-29.722 -23.10104,-42.00209 -1.79083,-3.88717 -3.25605,-7.15115 -3.25605,-7.25328 0,-0.10213 4.26847,-0.1857 9.48548,-0.1857 h 9.48548 l 8.10258,6.05428 c 4.45641,3.32985 8.50599,6.27018 8.99906,6.53406 0.49306,0.26388 1.74246,0.48214 2.77644,0.48502 1.81235,0.005 2.02615,-0.14768 5.94583,-4.24714 2.23624,-2.33881 4.95524,-5.28136 6.04224,-6.53902 l 1.97635,-2.28664 -0.31829,-6.36707 -0.31829,-6.36707 -6.70405,0.31419 -6.70406,0.3142 v -7.01553 -7.01553 h 6.75187 6.75186 v -6.75186 -6.75187 l 5.11835,-0.005 c 2.81509,-0.003 5.84833,-0.12547 6.74052,-0.27296 l 1.62218,-0.26816 0.12024,6.91592 0.12024,6.91592 6.86077,-0.10006 6.86076,-0.10006 v 6.96083 6.96082 h -6.75186 -6.75186 v 6.28734 6.28734 l 5.52235,6.01847 c 3.0373,3.31017 5.92862,6.25656 6.42517,6.54755 0.49654,0.29099 1.71793,0.53602 2.71421,0.54451 1.6641,0.0142 2.52406,-0.51594 10.57458,-6.51863 l 8.76317,-6.53406 h 9.35431 c 5.72279,0 9.35431,0.16327 9.35431,0.42056 0,0.7273 -5.56242,12.57712 -9.20852,19.61723 -7.43746,14.36072 -15.28588,27.88249 -21.61757,37.24416 -9.22641,13.64164 -20.11667,27.72374 -30.93383,40.00027 -5.90347,6.69992 -22.90086,23.74276 -27.87942,27.95398 -1.69943,1.43749 -3.10213,2.85121 -3.11711,3.14159 -0.0326,0.63121 5.58672,7.39814 8.38392,10.09619 l 1.98234,1.91208 1.67938,-1.33009 c 2.7687,-2.19285 18.64871,-18.59439 24.99306,-25.81387 29.40229,-33.45801 52.00803,-70.03634 67.70875,-109.5595 8.40926,-21.16849 14.73358,-43.3331 16.96025,-59.43993 1.14667,-8.294505 1.01992,-7.840877 2.1908,-7.840877 3.55566,0 38.33639,10.622597 40.04551,12.230547 0.45479,0.42787 -1.26653,8.61637 -4.61714,21.96438 -17.22402,68.61617 -55.1863,135.70517 -106.19992,187.68224 -6.48669,6.6092 -18.27488,17.70512 -18.80973,17.70512 -0.0906,0 -2.65152,-1.8132 -5.6909,-4.02934 z"
     id="path3756"
     inkscape:connector-curvature="0" />
</svg>
