<?xml version="1.0" encoding="UTF-8"?>
<svg id="Layer_8" data-name="Layer 8" xmlns="http://www.w3.org/2000/svg" width="1184.57" height="260.24" xmlns:xlink="http://www.w3.org/1999/xlink" viewBox="0 0 1184.57 260.24"><link xmlns="" type="text/css" rel="stylesheet" id="dark-mode-custom-link"/><link xmlns="" type="text/css" rel="stylesheet" id="dark-mode-general-link"/><style xmlns="" lang="en" type="text/css" id="dark-mode-custom-style"/><style xmlns="" lang="en" type="text/css" id="dark-mode-native-style"/><style xmlns="" lang="en" type="text/css" id="dark-mode-native-sheet"/>
  <defs>
    <linearGradient id="linear-gradient" x1="87.84" y1="68.6" x2="87.84" y2="191.9" gradientUnits="userSpaceOnUse">
      <stop offset="0" stop-color="#4780dd"/>
      <stop offset="1" stop-color="#5259c4"/>
    </linearGradient>
    <linearGradient id="linear-gradient-2" x1="213.85" y1="68.34" x2="213.85" xlink:href="#linear-gradient"/>
    <linearGradient id="linear-gradient-3" x1="487.66" y1="68.34" x2="487.66" xlink:href="#linear-gradient"/>
    <linearGradient id="linear-gradient-4" x1="618.57" y1="68.34" x2="618.57" xlink:href="#linear-gradient"/>
    <linearGradient id="linear-gradient-5" x1="819.99" x2="819.99" xlink:href="#linear-gradient"/>
    <linearGradient id="linear-gradient-6" x1="1095.77" y1="67.23" x2="1095.77" y2="175.4" xlink:href="#linear-gradient"/>
    <linearGradient id="linear-gradient-7" x1="954.13" y1="196.71" x2="943.84" y2="62.45" gradientUnits="userSpaceOnUse">
      <stop offset="0" stop-color="#4780dd"/>
      <stop offset="1" stop-color="#27a98b"/>
    </linearGradient>
    <linearGradient id="linear-gradient-8" x1="717.84" y1="79.95" x2="717.84" y2="184.87" xlink:href="#linear-gradient"/>
    <clipPath id="clippath">
      <path d="m353.09,139.54l-12.1-12.1,12.1-12.1,12.1,12.1-12.1,12.1Zm60.85,15.53v7.66c0,14.1-11.47,25.57-25.57,25.57h-7.66v-20c0-2.49-2.01-4.5-4.5-4.5s-4.5,2.01-4.5,4.5v20h-6.42v-20c0-2.49-2.01-4.5-4.5-4.5s-4.5,2.01-4.5,4.5v20h-6.42v-20c0-2.49-2.01-4.5-4.5-4.5s-4.5,2.01-4.5,4.5v20h-6.42v-20c0-2.49-2.01-4.5-4.5-4.5s-4.5,2.01-4.5,4.5v20h-7.66c-14.1,0-25.57-11.47-25.57-25.57v-7.66h20c2.49,0,4.5-2.01,4.5-4.5s-2.01-4.5-4.5-4.5h-20v-6.42h20c2.49,0,4.5-2.01,4.5-4.5s-2.01-4.5-4.5-4.5h-20v-6.42h20c2.49,0,4.5-2.01,4.5-4.5s-2.01-4.5-4.5-4.5h-20v-6.42h20c2.49,0,4.5-2.01,4.5-4.5s-2.01-4.5-4.5-4.5h-20v-7.66c0-14.1,11.47-25.57,25.57-25.57h7.66v20c0,2.49,2.01,4.5,4.5,4.5s4.5-2.01,4.5-4.5v-20h6.42v20c0,2.49,2.01,4.5,4.5,4.5s4.5-2.01,4.5-4.5v-20h6.42v20c0,2.49,2.01,4.5,4.5,4.5s4.5-2.01,4.5-4.5v-20h6.42v20c0,2.49,2.01,4.5,4.5,4.5s4.5-2.01,4.5-4.5v-20h7.66c14.1,0,25.57,11.47,25.57,25.57v7.66h-20c-2.49,0-4.5,2.01-4.5,4.5s2.01,4.5,4.5,4.5h20v6.42h-20c-2.49,0-4.5,2.01-4.5,4.5s2.01,4.5,4.5,4.5h20v6.42h-20c-2.49,0-4.5,2.01-4.5,4.5s2.01,4.5,4.5,4.5h20v6.42h-20c-2.49,0-4.5,2.01-4.5,4.5s2.01,4.5,4.5,4.5h20Zm-30-58.48h-61.71v61.71h61.71v-61.71Z" style="fill: none;"/>
    </clipPath>
    <linearGradient id="linear-gradient-9" x1="336.96" y1="75.26" x2="370.18" y2="155.98" gradientUnits="userSpaceOnUse">
      <stop offset="0" stop-color="#34ffff" stop-opacity="0"/>
      <stop offset="1" stop-color="#34ffff"/>
    </linearGradient>
    <clipPath id="clippath-1">
      <path d="m957.37,136h-17.11v-17.11h17.11s0,17.11,0,17.11Zm54.01-32.05l5.42,5.42c9.97,9.97,9.97,26.19,0,36.16l-5.42,5.42-14.14-14.14c-1.76-1.76-4.61-1.76-6.36,0-1.76,1.76-1.76,4.61,0,6.36l14.14,14.14-4.54,4.54-14.14-14.14c-1.76-1.76-4.61-1.76-6.36,0-1.76,1.76-1.76,4.61,0,6.36l14.14,14.14-4.54,4.54-14.14-14.14c-1.76-1.76-4.61-1.76-6.36,0-1.76,1.76-1.76,4.61,0,6.36l14.14,14.14-4.54,4.54-14.14-14.14c-1.76-1.76-4.61-1.76-6.36,0s-1.76,4.61,0,6.36l14.14,14.14-5.42,5.42c-9.97,9.97-26.19,9.97-36.16,0l-5.42-5.42,14.14-14.14c1.76-1.76,1.76-4.61,0-6.36-1.76-1.76-4.61-1.76-6.36,0l-14.14,14.14-4.54-4.54,14.14-14.14c1.76-1.76,1.76-4.61,0-6.36s-4.61-1.76-6.36,0l-14.14,14.14-4.54-4.54,14.14-14.14c1.76-1.76,1.76-4.61,0-6.36-1.76-1.76-4.61-1.76-6.36,0l-14.14,14.14-4.54-4.54,14.14-14.14c1.76-1.76,1.76-4.61,0-6.36-1.76-1.76-4.61-1.76-6.36,0l-14.14,14.14-5.42-5.42c-9.97-9.97-9.97-26.19,0-36.16l5.42-5.42,14.14,14.14c1.76,1.76,4.61,1.76,6.36,0,1.76-1.76,1.76-4.61,0-6.36l-14.14-14.14,4.54-4.54,14.14,14.14c1.76,1.76,4.61,1.76,6.36,0,1.76-1.76,1.76-4.61,0-6.36l-14.14-14.14,4.54-4.54,14.14,14.14c1.76,1.76,4.61,1.76,6.36,0,1.76-1.76,1.76-4.61,0-6.36l-14.14-14.14,4.54-4.54,14.14,14.14c1.76,1.76,4.61,1.76,6.36,0,1.76-1.76,1.76-4.61,0-6.36l-14.14-14.14,5.42-5.42c9.97-9.97,26.19-9.97,36.16,0l5.42,5.42-14.14,14.14c-1.76,1.76-1.76,4.61,0,6.36,1.76,1.76,4.61,1.76,6.36,0l14.14-14.14,4.54,4.54-14.14,14.14c-1.76,1.76-1.76,4.61,0,6.36,1.76,1.76,4.61,1.76,6.36,0l14.14-14.14,4.54,4.54-14.14,14.14c-1.76,1.76-1.76,4.61,0,6.36,1.76,1.76,4.61,1.76,6.36,0l14.14-14.14,4.54,4.54-14.14,14.14c-1.76,1.76-1.76,4.61,0,6.36s4.61,1.76,6.36,0l14.14-14.14Zm-62.56-20.14l-43.63,43.63,43.63,43.63,43.63-43.63-43.63-43.63Z" style="fill: none;"/>
    </clipPath>
    <linearGradient id="linear-gradient-10" x1="926.13" y1="70.99" x2="956.48" y2="158.63" gradientUnits="userSpaceOnUse">
      <stop offset="0" stop-color="#34ffff" stop-opacity="0"/>
      <stop offset="1" stop-color="#34ffff"/>
    </linearGradient>
  </defs>
  <path d="m55.21,68.6h77.6c3.22,0,4.83,1.18,4.83,3.53v5.69c0,8.39-4.86,14.71-14.57,18.97-.46.29-1.18.43-2.16.43H42.45c-2.93,0-4.4-1.18-4.4-3.53v-4.83c0-8.74,2.93-14.6,8.79-17.59,2.99-1.78,5.78-2.67,8.36-2.67Zm4.83,51.56h7.93c3.22,0,4.83,1.75,4.83,5.26v31.73c.52,3.22,2.16,4.83,4.91,4.83h34.41c14.54,0,23.05,6.29,25.52,18.88v7.07c0,2.64-2.21,3.97-6.64,3.97H62.28c-11.55,0-19.05-3.54-22.5-10.6-1.15-3.1-1.72-6.18-1.72-9.23v-30.35c0-14.37,7.33-21.56,21.99-21.56Z" style="fill: url(#linear-gradient);"/>
  <path d="m180.95,68.34h68.03c10.63,0,17.59,4.6,20.87,13.79v22.24c0,17.82-1.32,27.88-3.97,30.18-2.36,4.77-7.99,7.16-16.9,7.16-2.41.92-3.62,2.24-3.62,3.97,9.43,19.2,16.7,33.11,21.81,41.73l.43,2.24c-.58,1.38-1.15,2.13-1.72,2.24h-30.69c-3.05,0-7.36-5.92-12.93-17.76-9.89-18.57-15.81-28.94-17.76-31.13-1.5-.86-2.96-1.29-4.4-1.29h1.29c-3.56,0-5.35,3.39-5.35,10.17v36.47c0,2.36-1.18,3.54-3.54,3.54h-30.69c-2.64,0-3.97-1.64-3.97-4.91v-48.46c0-9.14,3.85-15.49,11.55-19.05,3.28-1.78,6.98-2.67,11.12-2.67h15.52c17.07,0,1.38-.14,32.94-.43,2.24,0,3.56-1.78,3.97-5.35v-8.02c0-3.85-2.53-5.78-7.59-5.78h-62.6c-3.28,0-4.91-1.32-4.91-3.97v-1.38c0-9.43,3.42-16.24,10.26-20.43,5.12-2.07,9.4-3.1,12.85-3.1Z" style="fill: url(#linear-gradient-2);"/>
  <path d="m501.76,68.34c10.58,0-5.02.14,33.2.43,1.84,0,2.99,1.32,3.45,3.97v3.97c0,6.67-2.93,11.66-5.69,14.83s-4.97,4.22-14.92,6.64h-80.88c-2.93,0-4.4-2.21-4.4-6.64v-.86c0-9.94,4.22-16.81,12.67-20.61,1.26-.57,3.02-1.01,5.26-1.29,26.44-.29,43.54-.43,51.3-.43Zm-64.41,46.04h88.38c4.71,0,9.51,2.76,14.4,8.28,1.78,1.5,2.67,6.04,2.67,13.62v34.57c0,8.33-1.9,13.45-5.69,15.35-3.22,3.79-8.77,5.69-16.64,5.69h-76.57c-4.37,0-6.55-1.75-6.55-5.26v-1.72c0-8.33,1.75-13.74,5.26-16.21,4.08-4.08,9.48-6.12,16.21-6.12h41.91c4.08,0,6.12-3.22,6.12-9.66v-.43c0-6.44-2.19-9.66-6.55-9.66-31.21.29-12.97.43-25.27.43-5.4,0-14.74-.14-28.02-.43-2.47,0-5.83-2.5-10.09-7.5-2.93-3.45-4.4-8.1-4.4-13.97v-2.24c0-3.16,1.61-4.74,4.83-4.74Z" style="fill: url(#linear-gradient-3);"/>
  <path d="m632.66,68.34c10.58,0-5.02.14,33.2.43,1.84,0,2.99,1.32,3.45,3.97v3.97c0,6.67-2.93,11.66-5.69,14.83s-4.97,4.22-14.92,6.64h-80.88c-2.93,0-4.4-2.21-4.4-6.64v-.86c0-9.94,4.22-16.81,12.67-20.61,1.26-.57,3.02-1.01,5.26-1.29,26.44-.29,43.54-.43,51.3-.43Zm-64.41,46.04h88.38c4.71,0,9.51,2.76,14.4,8.28,1.78,1.5,2.67,6.04,2.67,13.62v34.57c0,8.33-1.9,13.45-5.69,15.35-3.22,3.79-8.77,5.69-16.64,5.69h-76.57c-4.37,0-6.55-1.75-6.55-5.26v-1.72c0-8.33,1.75-13.74,5.26-16.21,4.08-4.08,9.48-6.12,16.21-6.12h41.91c4.08,0,6.12-3.22,6.12-9.66v-.43c0-6.44-2.19-9.66-6.55-9.66-31.21.29-12.97.43-25.27.43-5.4,0-14.74-.14-28.02-.43-2.47,0-5.83-2.5-10.09-7.5-2.93-3.45-4.4-8.1-4.4-13.97v-2.24c0-3.16,1.61-4.74,4.83-4.74Z" style="fill: url(#linear-gradient-4);"/>
  <path d="m787.35,68.6h77.6c3.22,0,4.83,1.18,4.83,3.53v5.69c0,8.39-4.86,14.71-14.57,18.97-.46.29-1.18.43-2.16.43h-78.46c-2.93,0-4.4-1.18-4.4-3.53v-4.83c0-8.74,2.93-14.6,8.79-17.59,2.99-1.78,5.78-2.67,8.36-2.67Zm4.83,51.56h7.93c3.22,0,4.83,1.75,4.83,5.26v31.73c.52,3.22,2.16,4.83,4.91,4.83h34.41c14.54,0,23.05,6.29,25.52,18.88v7.07c0,2.64-2.21,3.97-6.64,3.97h-68.72c-11.55,0-19.05-3.54-22.5-10.6-1.15-3.1-1.72-6.18-1.72-9.23v-30.35c0-14.37,7.33-21.56,21.99-21.56Z" style="fill: url(#linear-gradient-5);"/>
  <path d="m1050.81,68.6h22.45c2.15,0,4.03,1.47,4.54,3.56l1.8,9.16c.05.22,1.55,3.97,1.66,4.16l25.82,46.01c1.28,2.29,4.77,1.36,4.75-1.27l-.32-32.72c0-9.25,2.5-22.06,7.5-24.94,5.4-2.64,10.29-3.97,14.66-3.97h7.5c3.56,0,5.35,2.21,5.35,6.64v111.74c0,3.28-1.32,4.91-3.97,4.91h-22.84c-4.29,0-8.28-2.23-10.53-5.88l-6.58-10.66s-21.62-35.56-21.62-33.95v25.66c-.34,13.45-2.17,20.88-5.47,22.29-3.31,1.41-8.9,2.26-16.77,2.54h-7.21c-3.35,0-6.07-2.72-6.07-6.07v-31.61c0-10.98-.14-19.25-.43-24.83.29-5.63.43-13.91.43-24.83v-31.99c0-2.64,1.78-3.97,5.35-3.97Z" style="fill: url(#linear-gradient-6);"/>
  <path d="m353.09,139.54l-12.1-12.1,12.1-12.1,12.1,12.1-12.1,12.1Zm60.85,15.53v7.66c0,14.1-11.47,25.57-25.57,25.57h-7.66v-20c0-2.49-2.01-4.5-4.5-4.5s-4.5,2.01-4.5,4.5v20h-6.42v-20c0-2.49-2.01-4.5-4.5-4.5s-4.5,2.01-4.5,4.5v20h-6.42v-20c0-2.49-2.01-4.5-4.5-4.5s-4.5,2.01-4.5,4.5v20h-6.42v-20c0-2.49-2.01-4.5-4.5-4.5s-4.5,2.01-4.5,4.5v20h-7.66c-14.1,0-25.57-11.47-25.57-25.57v-7.66h20c2.49,0,4.5-2.01,4.5-4.5s-2.01-4.5-4.5-4.5h-20v-6.42h20c2.49,0,4.5-2.01,4.5-4.5s-2.01-4.5-4.5-4.5h-20v-6.42h20c2.49,0,4.5-2.01,4.5-4.5s-2.01-4.5-4.5-4.5h-20v-6.42h20c2.49,0,4.5-2.01,4.5-4.5s-2.01-4.5-4.5-4.5h-20v-7.66c0-14.1,11.47-25.57,25.57-25.57h7.66v20c0,2.49,2.01,4.5,4.5,4.5s4.5-2.01,4.5-4.5v-20h6.42v20c0,2.49,2.01,4.5,4.5,4.5s4.5-2.01,4.5-4.5v-20h6.42v20c0,2.49,2.01,4.5,4.5,4.5s4.5-2.01,4.5-4.5v-20h6.42v20c0,2.49,2.01,4.5,4.5,4.5s4.5-2.01,4.5-4.5v-20h7.66c14.1,0,25.57,11.47,25.57,25.57v7.66h-20c-2.49,0-4.5,2.01-4.5,4.5s2.01,4.5,4.5,4.5h20v6.42h-20c-2.49,0-4.5,2.01-4.5,4.5s2.01,4.5,4.5,4.5h20v6.42h-20c-2.49,0-4.5,2.01-4.5,4.5s2.01,4.5,4.5,4.5h20v6.42h-20c-2.49,0-4.5,2.01-4.5,4.5s2.01,4.5,4.5,4.5h20Zm-30-58.48h-61.71v61.71h61.71v-61.71Z" style="fill: #4780dd;"/>
  <path d="m940.26,136v-17.11s17.11,0,17.11,0v17.11s-17.11,0-17.11,0Zm32.05,54.01l-5.42,5.42c-9.97,9.97-26.19,9.97-36.16,0l-5.42-5.42,14.14-14.14c1.76-1.76,1.76-4.61,0-6.36-1.76-1.76-4.61-1.76-6.36,0l-14.14,14.14-4.54-4.54,14.14-14.14c1.76-1.76,1.76-4.61,0-6.36-1.76-1.76-4.61-1.76-6.36,0l-14.14,14.14-4.54-4.54,14.14-14.14c1.76-1.76,1.76-4.61,0-6.36-1.76-1.76-4.61-1.76-6.36,0l-14.14,14.14-4.54-4.54,14.14-14.14c1.76-1.76,1.76-4.61,0-6.36-1.76-1.76-4.61-1.76-6.36,0l-14.14,14.14-5.42-5.42c-9.97-9.97-9.97-26.19,0-36.16l5.42-5.42,14.14,14.14c1.76,1.76,4.61,1.76,6.36,0,1.76-1.76,1.76-4.61,0-6.36l-14.14-14.14,4.54-4.54,14.14,14.14c1.76,1.76,4.61,1.76,6.36,0s1.76-4.61,0-6.36l-14.14-14.14,4.54-4.54,14.14,14.14c1.76,1.76,4.61,1.76,6.36,0s1.76-4.61,0-6.36l-14.14-14.14,4.54-4.54,14.14,14.14c1.76,1.76,4.61,1.76,6.36,0,1.76-1.76,1.76-4.61,0-6.36l-14.14-14.14,5.42-5.42c9.97-9.97,26.19-9.97,36.16,0l5.42,5.42-14.14,14.14c-1.76,1.76-1.76,4.61,0,6.36s4.61,1.76,6.36,0l14.14-14.14,4.54,4.54-14.14,14.14c-1.76,1.76-1.76,4.61,0,6.36,1.76,1.76,4.61,1.76,6.36,0l14.14-14.14,4.54,4.54-14.14,14.14c-1.76,1.76-1.76,4.61,0,6.36,1.76,1.76,4.61,1.76,6.36,0l14.14-14.14,4.54,4.54-14.14,14.14c-1.76,1.76-1.76,4.61,0,6.36s4.61,1.76,6.36,0l14.14-14.14,5.42,5.42c9.97,9.97,9.97,26.19,0,36.16l-5.42,5.42-14.14-14.14c-1.76-1.76-4.61-1.76-6.36,0s-1.76,4.61,0,6.36l14.14,14.14-4.54,4.54-14.14-14.14c-1.76-1.76-4.61-1.76-6.36,0s-1.76,4.61,0,6.36l14.14,14.14-4.54,4.54-14.14-14.14c-1.76-1.76-4.61-1.76-6.36,0-1.76,1.76-1.76,4.61,0,6.36l14.14,14.14-4.54,4.54-14.14-14.14c-1.76-1.76-4.61-1.76-6.36,0s-1.76,4.61,0,6.36l14.14,14.14Zm20.14-62.56l-43.63-43.63-43.63,43.63,43.63,43.63,43.63-43.63Z" style="fill: url(#linear-gradient-7);"/>
  <circle cx="717.84" cy="127.45" r="21.44" style="fill: url(#linear-gradient-8);"/>
  <path d="m717.84,159.11c-2.59,0-5.09-.32-7.5-.9v43c0,12.41-10.09,22.5-22.5,22.5h-304.75c-12.41,0-22.5-10.09-22.5-22.5h-15c0,20.68,16.82,37.5,37.5,37.5h304.75c20.68,0,37.5-16.82,37.5-37.5v-43c-2.41.58-4.91.9-7.5.9Z" style="fill: #1aa8de;"/>
  <path d="m936.8,45.54c5.03-2.32,10.6-3.1,15.99-2.35-5.98-12.78-18.95-21.66-33.97-21.66h-170.98c-20.68,0-37.5,16.82-37.5,37.5v37.65c2.41-.58,4.92-.9,7.5-.9s5.09.32,7.5.9v-37.65c0-12.41,10.09-22.5,22.5-22.5h170.98c7.35,0,13.88,3.55,17.98,9.01Z" style="fill: #27a98b;"/>
  <g style="clip-path: url(#clippath);">
    <path d="m441.39,97.79c-3.08,6.48-2.16,5.15-8.84,7.75s-5.58,5.43-12.26,8.04-8.71-2.59-15.39.02-6.11,4.07-12.79,6.68c-6.68,2.61-4.91,7.13-11.59,9.74-6.68,2.61-5.79-4.74-12.47-2.14s-10.62,1.2-17.3,3.81-6.15,4.91-12.83,7.52-6.84,2.19-13.52,4.79-6.08,4.16-12.76,6.77-4.08,9.27-10.76,11.88c-6.69,2.61-7.9-.52-14.59,2.09s-6.43,2.58-13.09-.1c-6.26-2.52.9-5.09-1.55-11.38-2.45-6.29-9.17-3.66-11.62-9.95s-1-6.85-3.46-13.14c-2.45-6.29-2.65-6.21-5.11-12.5-2.45-6.29-3.83-5.75-6.28-12.04s1.22-7.72-1.24-14.01-8.15-5.46-5.26-11.56c3.08-6.48,4.86-5.15,11.54-7.76s8,.78,14.68-1.82,7.56-.35,14.24-2.95,3.89-9.77,10.57-12.37c6.68-2.61,9.24,3.96,15.92,1.35s5.31-6.12,11.99-8.72,7.62-.21,14.3-2.81,3.76-10.1,10.44-12.7,7.15-1.41,13.83-4.01,7.69-.01,14.38-2.62,9.2,3.86,15.88,1.26c6.69-2.61,3.33-11.2,10.02-13.81s8.8-5.29,15.45-2.61c6.26,2.52,3.86,6.87,6.31,13.16s-.5,7.44,1.95,13.72-2.24,8.12.22,14.4,12.88,2.22,15.34,8.51-.52,7.45,1.93,13.74,4.67,4.99,7.66,11.05c2.44,4.96-1.03,6.65-3.93,12.75Z" style="fill: url(#linear-gradient-9);"/>
  </g>
  <g style="clip-path: url(#clippath-1);">
    <path d="m1033.82,106.3c-3.04,6.49-2.13,5.16-8.79,7.81-6.66,2.65-5.54,5.47-12.21,8.11-6.66,2.65-8.72-2.54-15.39.11-6.67,2.65-6.08,4.11-12.75,6.76-6.66,2.65-2.32-5.79-8.99-3.15-6.66,2.65-9.09-2.99-15.75-.34-6.67,2.65-15.08,3.52-21.75,6.16s-.93,13.93-7.59,16.58-6.83,2.23-13.5,4.87-6.05,4.2-12.72,6.84-4.02,9.3-10.69,11.95c-6.67,2.65-7.91-.47-14.58,2.18s-6.42,2.62-13.09-.02c-6.28-2.48.87-5.09-1.62-11.37-2.49-6.27-9.2-3.61-11.69-9.88-2.49-6.27-1.04-6.85-3.53-13.12-2.49-6.27-2.69-6.19-5.18-12.47-2.49-6.27-3.86-5.73-6.35-12-2.49-6.28,1.17-7.73-1.32-14.01-2.49-6.28-8.19-5.41-5.33-11.53,3.04-6.49,4.82-5.18,11.49-7.83,6.66-2.65,8.01.74,14.67-1.91,6.66-2.65,7.56-.39,14.22-3.04,6.67-2.65,3.83-9.79,10.49-12.44,6.66-2.65,9.26,3.9,15.93,1.26,6.66-2.65,5.27-6.15,11.94-8.8,6.67-2.65,7.62-.25,14.28-2.9s3.69-10.12,10.36-12.77c6.66-2.65,7.14-1.45,13.8-4.1,6.67-2.65,7.69-.06,14.36-2.71,6.66-2.65,9.23,3.81,15.89,1.16s3.26-11.23,9.93-13.88,8.77-5.34,15.44-2.7c6.28,2.48,3.9,6.85,6.39,13.12,2.49,6.27-.46,7.44,2.03,13.71,2.49,6.27-2.19,8.13.3,14.4,2.49,6.27,12.9,2.14,15.39,8.41,2.49,6.27-.48,7.45,2.01,13.72,2.49,6.28,4.7,4.96,7.73,11,2.47,4.94-1,6.65-3.86,12.77Z" style="fill: url(#linear-gradient-10);"/>
  </g>
  <g style="opacity: .2;">
    <path d="m388.37,67.59c13.55,0,24.57,11.02,24.57,24.57v6.66h-19c-3.03,0-5.5,2.47-5.5,5.5s2.47,5.5,5.5,5.5h19v4.42h-19c-3.03,0-5.5,2.47-5.5,5.5s2.47,5.5,5.5,5.5h19v4.42h-19c-3.03,0-5.5,2.47-5.5,5.5s2.47,5.5,5.5,5.5h19v4.42h-19c-3.03,0-5.5,2.47-5.5,5.5s2.47,5.5,5.5,5.5h19v6.66c0,13.55-11.02,24.57-24.57,24.57h-6.66v-19c0-3.03-2.47-5.5-5.5-5.5s-5.5,2.47-5.5,5.5v19h-4.42v-19c0-3.03-2.47-5.5-5.5-5.5s-5.5,2.47-5.5,5.5v19h-4.42v-19c0-3.03-2.47-5.5-5.5-5.5s-5.5,2.47-5.5,5.5v19h-4.42v-19c0-3.03-2.47-5.5-5.5-5.5s-5.5,2.47-5.5,5.5v19h-6.66c-13.55,0-24.57-11.02-24.57-24.57v-6.66h19c3.03,0,5.5-2.47,5.5-5.5s-2.47-5.5-5.5-5.5h-19v-4.42h19c3.03,0,5.5-2.47,5.5-5.5s-2.47-5.5-5.5-5.5h-19v-4.42h19c3.03,0,5.5-2.47,5.5-5.5s-2.47-5.5-5.5-5.5h-19v-4.42h19c3.03,0,5.5-2.47,5.5-5.5s-2.47-5.5-5.5-5.5h-19v-6.66c0-13.55,11.02-24.57,24.57-24.57h6.66v19c0,3.03,2.47,5.5,5.5,5.5s5.5-2.47,5.5-5.5v-19h4.42v19c0,3.03,2.47,5.5,5.5,5.5s5.5-2.47,5.5-5.5v-19h4.42v19c0,3.03,2.47,5.5,5.5,5.5s5.5-2.47,5.5-5.5v-19h4.42v19c0,3.03,2.47,5.5,5.5,5.5s5.5-2.47,5.5-5.5v-19h6.66m-67.14,91.71h63.71v-63.71h-63.71v63.71m31.85-42.54l10.68,10.68-10.68,10.68-10.68-10.68,10.68-10.68m35.28-50.17h-7.66v20c0,2.49-2.01,4.5-4.5,4.5s-4.5-2.01-4.5-4.5v-20h-6.42v20c0,2.49-2.01,4.5-4.5,4.5s-4.5-2.01-4.5-4.5v-20h-6.42v20c0,2.49-2.01,4.5-4.5,4.5s-4.5-2.01-4.5-4.5v-20h-6.42v20c0,2.49-2.01,4.5-4.5,4.5s-4.5-2.01-4.5-4.5v-20h-7.66c-14.1,0-25.57,11.47-25.57,25.57v7.66h20c2.49,0,4.5,2.01,4.5,4.5s-2.01,4.5-4.5,4.5h-20v6.42h20c2.49,0,4.5,2.01,4.5,4.5s-2.01,4.5-4.5,4.5h-20v6.42h20c2.49,0,4.5,2.01,4.5,4.5s-2.01,4.5-4.5,4.5h-20v6.42h20c2.49,0,4.5,2.01,4.5,4.5s-2.01,4.5-4.5,4.5h-20v7.66c0,14.1,11.47,25.57,25.57,25.57h7.66v-20c0-2.49,2.01-4.5,4.5-4.5s4.5,2.01,4.5,4.5v20h6.42v-20c0-2.49,2.01-4.5,4.5-4.5s4.5,2.01,4.5,4.5v20h6.42v-20c0-2.49,2.01-4.5,4.5-4.5s4.5,2.01,4.5,4.5v20h6.42v-20c0-2.49,2.01-4.5,4.5-4.5s4.5,2.01,4.5,4.5v20h7.66c14.1,0,25.57-11.47,25.57-25.57v-7.66h-20c-2.49,0-4.5-2.01-4.5-4.5s2.01-4.5,4.5-4.5h20v-6.42h-20c-2.49,0-4.5-2.01-4.5-4.5s2.01-4.5,4.5-4.5h20v-6.42h-20c-2.49,0-4.5-2.01-4.5-4.5s2.01-4.5,4.5-4.5h20v-6.42h-20c-2.49,0-4.5-2.01-4.5-4.5s2.01-4.5,4.5-4.5h20v-7.66c0-14.1-11.47-25.57-25.57-25.57h0Zm-66.14,91.71v-61.71h61.71v61.71h-61.71Zm30.85-42.95l-12.1,12.1,12.1,12.1,12.1-12.1-12.1-12.1h0Z"/>
  </g>
  <g style="opacity: .2;">
    <path d="m948.82,52.99c6.57,0,12.74,2.55,17.37,7.18l4.71,4.71-13.44,13.43c-1.04,1.04-1.61,2.42-1.61,3.89s.57,2.85,1.61,3.89c1.04,1.04,2.42,1.61,3.89,1.61s2.85-.57,3.89-1.61l13.44-13.43,3.12,3.12-13.44,13.44c-1.04,1.04-1.61,2.42-1.61,3.89s.57,2.85,1.61,3.89c1.04,1.04,2.42,1.61,3.89,1.61s2.85-.57,3.89-1.61l13.44-13.43,3.12,3.12-13.44,13.43c-1.04,1.04-1.61,2.42-1.61,3.89s.57,2.85,1.61,3.89c1.04,1.04,2.42,1.61,3.89,1.61s2.85-.57,3.89-1.61l13.43-13.44,3.12,3.12-13.44,13.44c-1.04,1.04-1.61,2.42-1.61,3.89s.57,2.85,1.61,3.89,2.42,1.61,3.89,1.61,2.85-.57,3.89-1.61l13.44-13.44,4.71,4.71c4.63,4.63,7.18,10.8,7.18,17.37s-2.55,12.74-7.18,17.37l-4.71,4.71-13.44-13.43c-1.04-1.04-2.42-1.61-3.89-1.61s-2.85.57-3.89,1.61c-1.04,1.04-1.61,2.42-1.61,3.89s.57,2.85,1.61,3.89l13.44,13.43-3.12,3.12-13.43-13.44c-1.04-1.04-2.42-1.61-3.89-1.61s-2.85.57-3.89,1.61c-2.14,2.14-2.14,5.63,0,7.78l13.44,13.44-3.12,3.12-13.43-13.43c-1.04-1.04-2.42-1.61-3.89-1.61s-2.85.57-3.89,1.61c-1.04,1.04-1.61,2.42-1.61,3.89s.57,2.85,1.61,3.89l13.44,13.44-3.12,3.12-13.44-13.43c-1.04-1.04-2.42-1.61-3.89-1.61s-2.85.57-3.89,1.61c-1.04,1.04-1.61,2.42-1.61,3.89s.57,2.85,1.61,3.89l13.44,13.43-4.71,4.71c-4.63,4.63-10.8,7.18-17.37,7.18s-12.74-2.55-17.37-7.18l-4.71-4.71,13.44-13.43c1.04-1.04,1.61-2.42,1.61-3.89s-.57-2.85-1.61-3.89c-1.04-1.04-2.42-1.61-3.89-1.61s-2.85.57-3.89,1.61l-13.44,13.43-3.12-3.12,13.44-13.44c2.14-2.14,2.14-5.63,0-7.78-1.04-1.04-2.42-1.61-3.89-1.61s-2.85.57-3.89,1.61l-13.43,13.43-3.12-3.12,13.44-13.44c1.04-1.04,1.61-2.42,1.61-3.89s-.57-2.85-1.61-3.89-2.42-1.61-3.89-1.61-2.85.57-3.89,1.61l-13.44,13.44-3.12-3.12,13.44-13.43c1.04-1.04,1.61-2.42,1.61-3.89s-.57-2.85-1.61-3.89c-1.04-1.04-2.42-1.61-3.89-1.61s-2.85.57-3.89,1.61l-13.44,13.43-4.71-4.71c-4.63-4.63-7.18-10.8-7.18-17.37s2.55-12.74,7.18-17.37l4.71-4.71,13.44,13.44c1.04,1.04,2.42,1.61,3.89,1.61s2.85-.57,3.89-1.61c1.04-1.04,1.61-2.42,1.61-3.89s-.57-2.85-1.61-3.89l-13.44-13.44,3.12-3.12,13.43,13.44c1.04,1.04,2.42,1.61,3.89,1.61s2.85-.57,3.89-1.61c2.14-2.14,2.14-5.63,0-7.78l-13.44-13.43,3.12-3.12,13.43,13.43c1.04,1.04,2.42,1.61,3.89,1.61s2.85-.57,3.89-1.61c1.04-1.04,1.61-2.42,1.61-3.89s-.57-2.85-1.61-3.89l-13.44-13.44,3.12-3.12,13.44,13.43c1.04,1.04,2.42,1.61,3.89,1.61s2.85-.57,3.89-1.61c1.04-1.04,1.61-2.42,1.61-3.89s-.57-2.85-1.61-3.89l-13.44-13.43,4.71-4.71c4.63-4.63,10.8-7.18,17.37-7.18m0,119.51l.71-.71,43.63-43.63.71-.71-.71-.71-43.63-43.63-.71-.71-.71.71-43.63,43.63-.71.71.71.71,43.63,43.63.71.71m7.55-52.6v15.11h-15.11v-15.11h15.11m-7.55-67.9c-6.55,0-13.1,2.49-18.08,7.48l-5.42,5.42,14.14,14.14c1.76,1.76,1.76,4.61,0,6.36-.88.88-2.03,1.32-3.18,1.32s-2.3-.44-3.18-1.32l-14.14-14.14-4.54,4.54,14.14,14.14c1.76,1.76,1.76,4.61,0,6.36-.88.88-2.03,1.32-3.18,1.32s-2.3-.44-3.18-1.32l-14.14-14.14-4.54,4.54,14.14,14.14c1.76,1.76,1.76,4.61,0,6.36-.88.88-2.03,1.32-3.18,1.32s-2.3-.44-3.18-1.32l-14.14-14.14-4.54,4.54,14.14,14.14c1.76,1.76,1.76,4.61,0,6.36-.88.88-2.03,1.32-3.18,1.32s-2.3-.44-3.18-1.32l-14.14-14.14-5.42,5.42c-9.97,9.97-9.97,26.19,0,36.16l5.42,5.42,14.14-14.14c.88-.88,2.03-1.32,3.18-1.32s2.3.44,3.18,1.32c1.76,1.76,1.76,4.61,0,6.36l-14.14,14.14,4.54,4.54,14.14-14.14c.88-.88,2.03-1.32,3.18-1.32s2.3.44,3.18,1.32c1.76,1.76,1.76,4.61,0,6.36l-14.14,14.14,4.54,4.54,14.14-14.14c.88-.88,2.03-1.32,3.18-1.32s2.3.44,3.18,1.32c1.76,1.76,1.76,4.61,0,6.36l-14.14,14.14,4.54,4.54,14.14-14.14c.88-.88,2.03-1.32,3.18-1.32s2.3.44,3.18,1.32c1.76,1.76,1.76,4.61,0,6.36l-14.14,14.14,5.42,5.42c4.98,4.98,11.53,7.48,18.08,7.48s13.1-2.49,18.08-7.48l5.42-5.42-14.14-14.14c-1.76-1.76-1.76-4.61,0-6.36.88-.88,2.03-1.32,3.18-1.32s2.3.44,3.18,1.32l14.14,14.14,4.54-4.54-14.14-14.14c-1.76-1.76-1.76-4.61,0-6.36.88-.88,2.03-1.32,3.18-1.32s2.3.44,3.18,1.32l14.14,14.14,4.54-4.54-14.14-14.14c-1.76-1.76-1.76-4.61,0-6.36.88-.88,2.03-1.32,3.18-1.32s2.3.44,3.18,1.32l14.14,14.14,4.54-4.54-14.14-14.14c-1.76-1.76-1.76-4.61,0-6.36.88-.88,2.03-1.32,3.18-1.32s2.3.44,3.18,1.32l14.14,14.14,5.42-5.42c9.97-9.97,9.97-26.19,0-36.16l-5.42-5.42-14.14,14.14c-.88.88-2.03,1.32-3.18,1.32s-2.3-.44-3.18-1.32c-1.76-1.76-1.76-4.61,0-6.36l14.14-14.14-4.54-4.54-14.14,14.14c-.88.88-2.03,1.32-3.18,1.32s-2.3-.44-3.18-1.32c-1.76-1.76-1.76-4.61,0-6.36l14.14-14.14-4.54-4.54-14.14,14.14c-.88.88-2.03,1.32-3.18,1.32s-2.3-.44-3.18-1.32c-1.76-1.76-1.76-4.61,0-6.36l14.14-14.14-4.54-4.54-14.14,14.14c-.88.88-2.03,1.32-3.18,1.32s-2.3-.44-3.18-1.32c-1.76-1.76-1.76-4.61,0-6.36l14.14-14.14-5.42-5.42c-4.99-4.99-11.53-7.48-18.08-7.48h0Zm0,119.09l-43.63-43.63,43.63-43.63,43.63,43.63-43.63,43.63h0Zm8.55-52.19h-17.11v17.11h17.11v-17.11h0Z"/>
  </g>
<script xmlns="" id="bw-fido2-page-script"/></svg>
