<?xml version="1.0" encoding="UTF-8"?>
<!-- Generator: Adobe Illustrator 13.0.0, SVG Export Plug-In . SVG Version: 6.00 Build 14948)  -->
<!DOCTYPE svg PUBLIC "-//W3C//DTD SVG 1.1//EN" "http://www.w3.org/Graphics/SVG/1.1/DTD/svg11.dtd">
<svg version="1.1" id="Layer_1" xmlns="http://www.w3.org/2000/svg" xmlns:xlink="http://www.w3.org/1999/xlink" x="0px" y="0px" width="374.1728516px" height="125.8095703px" viewBox="0 0 374.1728516 125.8095703" enable-background="new 0 0 374.1728516 125.8095703" xml:space="preserve">
<g>
	<path fill-rule="evenodd" clip-rule="evenodd" fill="#005699" d="M305.7998047,125.8095703l4.0605469-18.4765625h23.9589844   c0.0175781,0,0.03125,0,0.046875,0h-0.046875h0.046875c10.3066406,0.0742188,20.1152344-2.4296875,27.1386719-8.2109375   c6.3769531-5.2460938,10.3320313-12.9140625,10.2382813-23.40625c0.1816406-4.8476563-1.3632813-9.6523438-4.1855469-13.4853516   c-0.421875-0.5742188-0.875-1.1279297-1.3535156-1.6552734c1.3203125-1.0820313,2.5019531-2.296875,3.5371094-3.6474609   c3.1757813-4.1416016,4.84375-9.3574219,4.9316406-15.5283203v-0.1367188   c-0.0917969-7.3271484-2.3710938-13.0546875-7.6074219-17.1240234c-4.7109375-3.6611328-11.6210938-5.5791016-21.34375-5.6601563   h-15.8359375L333.4482422,0H204.8447266C160.859375,0,125.53125,27.6474609,123.0185547,67.8642578   c-2.7929688,47.0546875,30.7197266,57.9453125,68.28125,57.9453125H305.7998047L305.7998047,125.8095703z"/>
	<path fill-rule="evenodd" clip-rule="evenodd" fill="#FFFFFF" d="M229.2802734,23.8769531h-23.8789063l-8.9355469,42.3076172   c-1.5351563,8.8007813-4.6074219,17.734375-14.5214844,17.4570313c-9.6357422,0.2773438-8.9365234-7.5429688-8.9365234-9.9140625   c0-1.2578125,0.6972656-5.1679688,1.1162109-7.5429688l8.796875-42.3076172h-23.7373047l-10.3330078,49.4326172   c-0.2792969,1.6757813-0.8378906,4.7460938-0.8378906,6.140625c0,12.4296875,9.6347656,23.6015625,32.8144531,23.8789063   c19.4082031-0.2773438,33.7910156-8.796875,37.7011719-28.2070313L229.2802734,23.8769531L229.2802734,23.8769531z    M293.3720703,47.7548828c0.4199219-18.9902344-14.3828125-25.1337891-30.9980469-25.2744141   c-15.5,0.140625-32.2558594,8.0996094-32.3964844,25.6933594c0.140625,12.7070313,9.2167969,17.7333984,18.5722656,20.9443359   c10.7519531,3.4921875,18.5703125,4.1914063,18.4316406,9.9140625c0.1386719,5.0273438-5.5859375,7.4023438-10.3339844,7.5429688   c-3.7695313-0.140625-6.5625-0.421875-8.5175781-2.0976563c-2.09375-1.953125-3.0722656-4.6054688-3.2109375-8.9375h-22.7597656   c-1.1171875,19.8320313,14.9394531,27.9296875,32.6738281,28.0664063   c16.7558594-0.1367188,34.9082031-8.796875,34.9082031-27.3671875c0-9.3554688-4.6074219-16.6152344-18.1523438-21.3632813   c-7.4003906-2.7919922-18.9902344-3.0722656-19.1289063-8.9365234c0.1386719-5.0263672,5.3046875-6.2832031,9.2148438-6.4228516   c2.7929688,0.1396484,5.3066406,0.5585938,7.1210938,1.8154297c1.6757813,1.3964844,2.6542969,3.3505859,2.5136719,6.4228516   H293.3720703L293.3720703,47.7548828z M289.3232422,101.5126953l16.0585938-77.2167969h39.7949219   c16.7558594,0.1396484,23.0390625,6.0048828,23.1796875,17.0361328   c-0.140625,9.7744141-5.0273438,16.1972656-14.2441406,18.5712891v0.2792969   c6.9824219,1.5351563,11.5898438,8.3769531,11.3105469,15.3574219   c0.2792969,18.7109375-14.6601563,26.1132813-31.5566406,25.9726563H289.3232422L289.3232422,101.5126953z M318.5068359,68.4189453   l-3.2128906,14.5234375h15.3613281c4.328125,0,10.0527344-1.5351563,10.3320313-7.8203125   c-0.1386719-5.7226563-4.46875-6.5625-9.3554688-6.703125H318.5068359L318.5068359,68.4189453z M323.8115234,42.4482422   l-2.5117188,11.7294922h13.5429688c3.7714844,0,8.5175781-1.5361328,8.5175781-6.1435547   c0-4.7480469-3.0703125-5.5859375-7.4003906-5.5859375H323.8115234L323.8115234,42.4482422z"/>
	<polygon fill-rule="evenodd" clip-rule="evenodd" fill="#005699" points="8.9365234,42.4482422 0,82.9423828    139.4951172,82.9423828 139.4951172,42.4482422 8.9365234,42.4482422  "/>
	<path fill-rule="evenodd" clip-rule="evenodd" fill="#FFFFFF" d="M13.8242188,62.6962891   c0.9775391-4.1894531,1.8154297-8.2392578,7.4013672-8.2392578c3.3505859,0,4.328125,1.8154297,3.4902344,5.3066406h-3.3515625   c0.5585938-2.234375,0.2792969-2.9326172-0.6982422-2.9326172c-1.9550781,0-2.5126953,1.8154297-3.3505859,5.8652344   c-0.9775391,4.046875-1.1171875,5.8632813,0.8378906,5.8632813c1.5351563,0,1.9541016-1.953125,2.234375-3.2109375h3.3505859   c-0.9775391,4.328125-2.9316406,5.5859375-6.1435547,5.5859375C12.1484375,70.9345703,12.9863281,66.8837891,13.8242188,62.6962891   L13.8242188,62.6962891z"/>
	<polygon fill-rule="evenodd" clip-rule="evenodd" fill="#FFFFFF" points="27.0898438,70.7939453 30.5810547,54.5966797    39.3769531,54.5966797 38.8183594,57.1103516 33.3730469,57.1103516 32.5351563,61.1591797 37.5625,61.1591797    37.0029297,63.5332031 31.9765625,63.5332031 30.9990234,68.2822266 36.5839844,68.2822266 36.0263672,70.7939453    27.0898438,70.7939453  "/>
	<path fill-rule="evenodd" clip-rule="evenodd" fill="#FFFFFF" d="M46.9179688,57.1103516h1.3964844   c1.1162109,0,1.6748047,0.5585938,1.3964844,2.0947266c-0.2802734,1.1162109-0.9785156,2.3730469-2.234375,2.3730469h-1.5361328   L46.9179688,57.1103516L46.9179688,57.1103516z M45.3818359,64.0917969h0.8378906   c2.6533203,0,2.0947266,1.5380859,1.6757813,3.4912109c-0.140625,1.1171875-0.5595703,2.234375-0.2792969,3.2109375h3.3505859   c-0.2792969-0.6992188,0.4189453-3.7695313,0.5585938-4.7460938c0.6982422-2.9335938-1.5361328-3.0732422-2.2333984-3.2119141l0,0   c2.2333984-0.4199219,3.3505859-1.9550781,3.9091797-3.9101563c0.5585938-2.7929688-0.6982422-4.3291016-2.9326172-4.3291016   H44.125l-3.4912109,16.1972656h3.3515625L45.3818359,64.0917969L45.3818359,64.0917969z"/>
	<polygon fill-rule="evenodd" clip-rule="evenodd" fill="#FFFFFF" points="68.5605469,54.5966797 68.0029297,57.3896484    64.2324219,57.3896484 61.2998047,70.7939453 57.9482422,70.7939453 60.8808594,57.3896484 57.1103516,57.3896484    57.6699219,54.5966797 68.5605469,54.5966797  "/>
	<polygon fill-rule="evenodd" clip-rule="evenodd" fill="#FFFFFF" points="69.1191406,70.7939453 72.4707031,54.5966797    75.8222656,54.5966797 72.4707031,70.7939453 69.1191406,70.7939453  "/>
	<polygon fill-rule="evenodd" clip-rule="evenodd" fill="#FFFFFF" points="77.6367188,70.7939453 81.1279297,54.5966797    89.3662109,54.5966797 88.9472656,57.1103516 83.9208984,57.1103516 83.0830078,61.2998047 87.8300781,61.2998047    87.2714844,63.6738281 82.5244141,63.6738281 80.9882813,70.7939453 77.6367188,70.7939453  "/>
	<polygon fill-rule="evenodd" clip-rule="evenodd" fill="#FFFFFF" points="90.0644531,70.7939453 93.4160156,54.5966797    96.9072266,54.5966797 93.4160156,70.7939453 90.0644531,70.7939453  "/>
	<polygon fill-rule="evenodd" clip-rule="evenodd" fill="#FFFFFF" points="98.7216797,70.7939453 102.0732422,54.5966797    110.8701172,54.5966797 110.3115234,57.1103516 105.0058594,57.1103516 104.1669922,61.1591797 109.0546875,61.1591797    108.6357422,63.5332031 103.609375,63.5332031 102.6318359,68.2822266 108.2167969,68.2822266 107.6582031,70.7939453    98.7216797,70.7939453  "/>
	<path fill-rule="evenodd" clip-rule="evenodd" fill="#FFFFFF" d="M118.5498047,57.1103516h1.8154297   c2.234375,0,1.8154297,2.6533203,1.1171875,5.5859375c-0.8378906,4.046875-1.5361328,5.5859375-3.6298828,5.5859375h-1.6767578   L118.5498047,57.1103516L118.5498047,57.1103516z M112.40625,70.7939453h5.4462891   c5.7246094,0,6.5625-5.7226563,7.1210938-8.2382813c0.9765625-5.0263672,0.8378906-7.9589844-3.6308594-7.9589844h-5.5859375   L112.40625,70.7939453L112.40625,70.7939453z"/>
	<polygon fill-rule="evenodd" clip-rule="evenodd" fill="#FFFFFF" points="293.5107422,112.5439453 293.0927734,113.9423828    291.1376953,113.9423828 289.7412109,120.9228516 287.9267578,120.9228516 289.4619141,113.9423828 287.5068359,113.9423828    287.7861328,112.5439453 293.5107422,112.5439453  "/>
	<polygon fill-rule="evenodd" clip-rule="evenodd" fill="#FFFFFF" points="293.0927734,120.9228516 294.9072266,112.5439453    297.7001953,112.5439453 297.8408203,118.2705078 297.8408203,118.2705078 300.4931641,112.5439453 303.2861328,112.5439453    301.4716797,120.9228516 299.7958984,120.9228516 301.0517578,114.5009766 301.0517578,114.5009766 298.1201172,120.9228516    296.4443359,120.9228516 296.3037109,114.5009766 296.1650391,114.5009766 294.9072266,120.9228516 293.0927734,120.9228516  "/>
</g>
</svg>